<svg width="20" height="20" viewBox="0 0 20 20" fill="none" xmlns="http://www.w3.org/2000/svg">
<g clip-path="url(#clip0_297_2031)">
<path d="M10 19.9032C15.5228 19.9032 20 15.4477 20 9.95162C20 4.45549 15.5228 0 10 0C4.47715 0 0 4.45549 0 9.95162C0 15.4477 4.47715 19.9032 10 19.9032Z" fill="#F8DB5B"/>
<path fill-rule="evenodd" clip-rule="evenodd" d="M10.1117 20.0001C15.5727 20.0001 19.9999 15.5945 19.9999 10.1598C19.9999 8.34076 19.5039 6.63692 18.6391 5.17502L2.3103 16.2069C4.11985 18.5156 6.94154 20.0001 10.1117 20.0001Z" fill="#EAB420"/>
<path d="M9.9999 17.5147C14.1973 17.5147 17.5999 14.1285 17.5999 9.95145C17.5999 5.77441 14.1973 2.38824 9.9999 2.38824C5.80254 2.38824 2.3999 5.77441 2.3999 9.95145C2.3999 14.1285 5.80254 17.5147 9.9999 17.5147Z" fill="#FDC806"/>
<g filter="url(#filter0_i_297_2031)">
<path d="M10.9669 9.78632C12.2917 9.62662 13.1909 9.15547 13.797 8.57593C14.5838 7.82385 14.8935 6.87932 14.9999 6.19949C13.7193 7.11253 12.3072 7.65709 10.9609 8.17601C10.7026 8.27509 10.4455 8.37424 10.1944 8.47447C10.0689 8.53516 9.93732 8.58878 9.80101 8.63539C7.57943 9.56247 5.80023 10.7344 5.83372 14.0787H8.86363C9.12186 14.0787 9.36339 14.0635 9.58339 14.0344C10.2578 13.9445 10.8126 13.7289 11.1916 13.4117C11.4332 13.2099 11.6005 12.9615 11.6782 12.6747C11.0493 12.8438 10.4216 12.9242 9.91462 12.9791C9.64678 13.0082 9.40524 12.8193 9.37539 12.5581C9.34547 12.2969 9.53916 12.0614 9.80824 12.0322C10.577 11.9482 11.6484 11.8036 12.465 11.3465C12.9912 11.0515 13.418 10.6096 13.5782 9.93678C12.9265 10.3215 12.1087 10.6108 11.0852 10.7344C10.8162 10.7659 10.5722 10.5805 10.54 10.3181C10.5077 10.0569 10.6978 9.81901 10.9669 9.78632Z" fill="#AA741D"/>
<path d="M12.5705 5C11.7172 5.49578 10.828 5.84199 9.97308 6.17307C8.09008 6.90246 6.38869 7.56295 6.09229 9.85869C7.1974 9.07215 8.50123 8.489 9.88739 7.93608C11.0542 7.35455 12.1045 6.14114 12.5705 5Z" fill="#AA741D"/>
</g>
</g>
<defs>
<filter id="filter0_i_297_2031" x="5.83325" y="5" width="9.16675" height="9.0787" filterUnits="userSpaceOnUse" color-interpolation-filters="sRGB">
<feFlood flood-opacity="0" result="BackgroundImageFix"/>
<feBlend mode="normal" in="SourceGraphic" in2="BackgroundImageFix" result="shape"/>
<feColorMatrix in="SourceAlpha" type="matrix" values="0 0 0 0 0 0 0 0 0 0 0 0 0 0 0 0 0 0 127 0" result="hardAlpha"/>
<feOffset/>
<feGaussianBlur stdDeviation="0.5"/>
<feComposite in2="hardAlpha" operator="arithmetic" k2="-1" k3="1"/>
<feColorMatrix type="matrix" values="0 0 0 0 0 0 0 0 0 0 0 0 0 0 0 0 0 0 0.19 0"/>
<feBlend mode="normal" in2="shape" result="effect1_innerShadow_297_2031"/>
</filter>
<clipPath id="clip0_297_2031">
<rect width="20" height="20" fill="white"/>
</clipPath>
</defs>
</svg>
