<svg width="124" height="30" viewBox="0 0 124 30" fill="none" xmlns="http://www.w3.org/2000/svg">
<g clip-path="url(#clip0_2799_3788)">
<mask id="mask0_2799_3788" style="mask-type:luminance" maskUnits="userSpaceOnUse" x="40" y="5" width="84" height="20">
<path d="M124 5.5H40V24.5H124V5.5Z" fill="white"/>
</mask>
<g mask="url(#mask0_2799_3788)">
<path d="M110.892 6.09835C111.364 6.09835 111.807 6.17797 112.219 6.3372C112.632 6.48197 112.986 6.69187 113.281 6.96692C113.591 7.24197 113.834 7.56768 114.011 7.94406C114.188 8.32044 114.277 8.73301 114.277 9.18178V20.6469C114.277 21.0957 114.188 21.5082 114.011 21.8846C113.834 22.261 113.591 22.5867 113.281 22.8618C112.986 23.1368 112.632 23.3467 112.219 23.4915C111.807 23.6507 111.364 23.7303 110.892 23.7303H106.557C106.085 23.7303 105.642 23.6507 105.229 23.4915C104.817 23.3467 104.455 23.1368 104.146 22.8618C103.851 22.5867 103.615 22.261 103.438 21.8846C103.261 21.5082 103.172 21.0957 103.172 20.6469V9.18178C103.172 8.73301 103.261 8.32044 103.438 7.94406C103.615 7.56768 103.851 7.24197 104.146 6.96692C104.455 6.69187 104.817 6.48197 105.229 6.3372C105.642 6.17797 106.085 6.09835 106.557 6.09835H110.892ZM120.249 13.0686H122.726V15.4355H120.249V23.7303H117.019V5.66406H120.249V13.0686ZM108.724 21.3635C109.477 21.3635 110.089 21.2187 110.56 20.9292C111.032 20.6397 111.268 20.1909 111.268 19.5829V10.2458C111.268 9.63778 111.032 9.18901 110.56 8.89949C110.089 8.60997 109.477 8.4652 108.724 8.4652C107.972 8.4652 107.36 8.60997 106.888 8.89949C106.417 9.18901 106.181 9.63778 106.181 10.2458V19.5829C106.181 20.1909 106.417 20.6397 106.888 20.9292C107.36 21.2187 107.972 21.3635 108.724 21.3635Z" fill="#FEFFFE"/>
<path d="M94.0986 23.7303H82.3086V21.3635H83.7686V8.4652H82.4192V6.09835H93.988V8.4652H92.6387V21.3635H94.0986V23.7303ZM100.226 23.7303H96.9963V5.66406H100.226V23.7303ZM86.9981 21.3635H89.4092V8.4652H86.9981V21.3635Z" fill="#FEFFFE"/>
<path d="M64.3692 20.6469V21.5372H79.8311V23.7303H61.1397V18.4538H76.6016V17.5418H61.1397V15.3486H79.8311V20.6469H64.3692ZM69.4347 6.09835V8.72578H71.7352V5.66406H74.7435V14.176H71.7352V11.0926H69.4347V14.176H60.6973V6.09835H63.7056V7.66178H66.4264V6.09835H69.4347ZM79.8311 14.176H76.8228V5.66406H79.8311V14.176ZM66.4264 11.8092V10.0286H63.7056V11.8092H66.4264Z" fill="#FEFFFE"/>
<path d="M57.6626 17.1084H50.7391V21.3644H58.105V23.7312H40.1436V21.3644H47.5096V17.1084H40.586V6.31641H43.8155V14.7415H57.6626V17.1084Z" fill="#FEFFFE"/>
</g>
<path d="M16.0804 14.9328C18.6819 14.5953 20.4475 13.6001 21.6379 12.3758C23.1828 10.7869 23.7909 8.79161 23.9999 7.35547C21.4853 9.28428 18.7124 10.4347 16.0687 11.5309C15.5616 11.7403 15.0568 11.9496 14.5637 12.1615C14.3172 12.2896 14.0589 12.4029 13.7912 12.5014C9.42885 14.4598 5.93517 16.9355 6.00091 24.0004H11.9505C12.4576 24.0004 12.9319 23.9683 13.3639 23.9068C14.6881 23.7171 15.7776 23.2614 16.5218 22.5913C16.9961 22.1652 17.3248 21.6405 17.4774 21.0345C16.2424 21.3917 15.0098 21.5617 14.0143 21.6774C13.4884 21.739 13.0141 21.3399 12.9554 20.7882C12.8967 20.2364 13.277 19.7388 13.8053 19.6772C15.315 19.4998 17.4187 19.1944 19.0224 18.2287C20.0554 17.6055 20.8936 16.6719 21.2083 15.2505C19.9286 16.0634 18.3227 16.6744 16.3129 16.9355C15.7846 17.002 15.3056 16.6103 15.2422 16.0561C15.1788 15.5043 15.5522 15.0017 16.0804 14.9328Z" fill="white"/>
<path d="M17.4916 6C16.3224 6.72669 15.1038 7.23414 13.9322 7.71942C11.3519 8.78852 9.02044 9.75662 8.61426 13.1215C10.1286 11.9687 11.9154 11.1139 13.8148 10.3034C15.4137 9.45116 16.853 7.67262 17.4916 6Z" fill="white"/>
<path d="M24 0H6C2.68629 0 0 2.68629 0 6V24C0 27.3137 2.68629 30 6 30H24C27.3137 30 30 27.3137 30 24V6C30 2.68629 27.3137 0 24 0Z" fill="#7632FE"/>
<path d="M17.5213 13.9774C20.3582 13.6555 22.2837 12.7063 23.5818 11.5385C25.2666 10.023 25.9297 8.11983 26.1576 6.75C23.4154 8.58975 20.3915 9.68702 17.5085 10.7326C16.9554 10.9323 16.4049 11.132 15.8672 11.3341C15.5984 11.4563 15.3167 11.5644 15.0248 11.6584C10.2676 13.5263 6.45763 15.8877 6.52932 22.6264H13.0175C13.5705 22.6264 14.0877 22.5958 14.5588 22.5371C16.0029 22.3562 17.191 21.9215 18.0026 21.2824C18.5198 20.8759 18.8783 20.3754 19.0447 19.7974C17.6979 20.1381 16.3537 20.3003 15.2681 20.4107C14.6945 20.4694 14.1773 20.0888 14.1133 19.5625C14.0493 19.0362 14.4641 18.5615 15.0402 18.5028C16.6866 18.3336 18.9807 18.0423 20.7295 17.1212C21.8561 16.5268 22.7702 15.6363 23.1133 14.2805C21.7178 15.0559 19.9665 15.6386 17.7748 15.8877C17.1987 15.9511 16.6763 15.5775 16.6072 15.0489C16.5381 14.5225 16.9452 14.0432 17.5213 13.9774Z" fill="white"/>
<path d="M19.0589 5.45312C17.7838 6.14626 16.455 6.63029 15.1773 7.09316C12.3634 8.1129 9.82089 9.0363 9.37793 12.2459C11.0294 11.1463 12.9779 10.3309 15.0493 9.55791C16.7929 8.74495 18.3625 7.04851 19.0589 5.45312Z" fill="white"/>
</g>
<defs>
<clipPath id="clip0_2799_3788">
<rect width="124" height="30" fill="white"/>
</clipPath>
</defs>
</svg>
