<svg width="150" height="150" viewBox="0 0 150 150" fill="none" xmlns="http://www.w3.org/2000/svg">
<path d="M134.58 44.5996L127.91 40.0596L127.65 39.9096C126.393 39.2898 124.981 39.0533 123.59 39.2296L110.81 41.4996C108.885 41.8384 107.14 42.8453 105.884 44.3433C104.627 45.8413 103.939 47.7344 103.94 49.6896V58.6896C102.59 59.1061 101.38 59.8842 100.44 60.9396C100.29 60.9396 100.15 60.8296 100 60.7896C98.4093 60.3607 96.7678 60.1488 95.1202 60.1596C92.034 60.1782 89.0067 61.0057 86.3402 62.5596C85.072 63.2813 83.8938 64.1507 82.8302 65.1496L82.7602 65.2096C81.9508 65.9853 81.3068 66.9168 80.8668 67.9479C80.4269 68.979 80.2001 70.0885 80.2002 71.2096V76.9996C80.2001 78.1207 80.4269 79.2301 80.8668 80.2613C81.3068 81.2924 81.9508 82.2239 82.7602 82.9996L82.8402 83.0696C83.8991 84.067 85.0742 84.9332 86.3402 85.6496C89.0153 87.1677 92.0445 87.9509 95.1202 87.9196C96.7678 87.9304 98.4093 87.7184 100 87.2896C100.256 87.2161 100.506 87.1259 100.75 87.0196C102.198 88.4443 104.149 89.2418 106.18 89.2396H113.25V102.24C113.251 104.436 114.029 106.562 115.448 108.239C116.867 109.916 118.834 111.035 121 111.4L123.59 111.84C123.844 111.887 124.102 111.911 124.36 111.91C125.399 111.907 126.406 111.552 127.218 110.904C128.029 110.256 128.598 109.352 128.83 108.34L137.4 70.2796L137.48 49.8396C137.403 48.8087 137.104 47.8068 136.604 46.9023C136.103 45.9979 135.413 45.2123 134.58 44.5996ZM89.1102 80.9996C88.204 80.4991 87.3613 79.8914 86.6002 79.1896C86.2854 78.914 86.0332 78.5741 85.8608 78.1929C85.6883 77.8117 85.5994 77.398 85.6002 76.9796V71.2696C85.5994 70.8512 85.6883 70.4374 85.8608 70.0562C86.0332 69.675 86.2854 69.3352 86.6002 69.0596C87.3613 68.3578 88.204 67.7501 89.1102 67.2496C90.9338 66.1898 93.0011 65.6212 95.1102 65.5996C96.2299 65.5927 97.3458 65.7305 98.4302 66.0096C98.4302 66.0096 98.4302 66.0996 98.4302 66.1396V81.4996C98.4302 81.6996 98.4302 81.8996 98.4302 82.0996C97.3391 82.3793 96.2165 82.5171 95.0902 82.5096C93.0003 82.5281 90.9408 82.0081 89.1102 80.9996ZM106.18 83.2496C105.95 83.2509 105.721 83.2066 105.507 83.1193C105.294 83.0319 105.1 82.9032 104.936 82.7406C104.773 82.5779 104.643 82.3846 104.554 82.1716C104.466 81.9586 104.42 81.7302 104.42 81.4996V66.1396C104.423 65.6745 104.609 65.2294 104.939 64.9015C105.269 64.5736 105.715 64.3896 106.18 64.3896H108.31C108.39 64.5196 108.45 64.6496 108.53 64.7696L115.14 74.6496C115.85 75.7087 116.229 76.9547 116.23 78.2296V83.2296L106.18 83.2496ZM131.43 69.5996L123.3 105.71L122 105.5C121.223 105.367 120.518 104.965 120.009 104.363C119.5 103.76 119.221 102.998 119.22 102.21V83.2096V78.2096C119.217 76.354 118.663 74.541 117.63 72.9996L111 63.0996C110.288 62.0379 109.909 60.788 109.91 59.5096V51.5096V49.6896C109.911 49.1419 110.106 48.6122 110.459 48.1934C110.811 47.7747 111.301 47.4936 111.84 47.3996L124.48 45.1496C124.588 45.1609 124.695 45.1809 124.8 45.2096L131.12 49.4996C131.266 49.6572 131.387 49.8359 131.48 50.0296L131.43 69.5996Z" fill="#F5F5F7"/>
<path d="M56.1004 51.88C54.3341 47.9582 51.4904 44.6187 47.9001 42.25C44.3099 39.8813 40.1209 38.5808 35.8204 38.5C32.9018 38.496 30.0176 39.1309 27.3704 40.36C16.8004 45.29 12.4804 58.46 17.7404 69.73L31.0004 98.12C32.7682 102.045 35.615 105.386 39.2091 107.755C42.8032 110.124 46.9965 111.423 51.3004 111.5C54.2157 111.503 57.0963 110.868 59.7404 109.64C70.3204 104.71 74.6304 91.54 69.3704 80.27L56.1004 51.88ZM64.6304 96C64.0007 97.7975 63.0206 99.4523 61.7469 100.868C60.4733 102.285 58.9313 103.434 57.2104 104.25C55.3587 105.109 53.3416 105.553 51.3004 105.55C48.1389 105.471 45.0645 104.497 42.4343 102.741C39.804 100.985 37.7256 98.5196 36.4404 95.63L23.1704 67.19C21.2029 63.0582 20.9547 58.3146 22.4804 54C23.1101 52.2025 24.0902 50.5478 25.3639 49.1316C26.6375 47.7155 28.1795 46.5661 29.9004 45.75C31.7551 44.8896 33.7758 44.4459 35.8204 44.45C38.9816 44.5301 42.0555 45.5045 44.6855 47.2602C47.3156 49.016 49.3942 51.4811 50.6804 54.37L63.9404 82.77C64.92 84.8214 65.4852 87.046 65.6036 89.3163C65.722 91.5865 65.3913 93.8578 64.6304 96Z" fill="#F5F5F7"/>
</svg>
