<svg width="209" height="44" viewBox="0 0 209 44" fill="none" xmlns="http://www.w3.org/2000/svg">
<g clip-path="url(#clip0_2199_398)">
<path d="M41.0806 41.1395V42.9995H24.4006V41.1395H30.0406V22.2995H11.6206V41.1395H17.2006V42.9995H0.640625V41.1395H6.28063V3.51953H0.640625V1.65953H17.2006V3.51953H11.6206V20.1995H30.0406V3.51953H24.4006V1.65953H41.0806V3.51953H35.5006V41.1395H41.0806ZM79.1694 28.6595H81.0894L80.3094 42.9995L45.5694 43.0595L70.8894 3.51953L60.0294 3.63953C55.8294 3.67953 53.0494 4.47953 51.6894 6.03953C50.1694 7.87953 49.2294 10.4795 48.8694 13.8395H47.3094L47.4293 1.59953L78.5094 1.65953L53.5494 41.1395L67.7694 40.9595C68.8494 40.9595 70.1894 40.6595 71.7894 40.0595C73.3894 39.4595 74.5694 38.7795 75.3294 38.0195C77.6494 35.8595 78.9294 32.7395 79.1694 28.6595ZM126.462 41.1395V42.9995H110.862V41.1395H115.662L111.582 29.3195H97.1215L94.8415 34.7195C94.1215 36.5595 93.7615 37.9195 93.7615 38.7995C93.7615 39.6395 93.8815 40.2395 94.1215 40.5995C94.3615 40.9595 95.6215 41.1395 97.9015 41.1395V42.9995H84.8215V41.1395C86.9015 41.1795 88.4015 40.9195 89.3215 40.3595C90.2815 39.7595 91.3215 37.8795 92.4415 34.7195L105.462 0.519531H107.862L122.022 41.1395H126.462ZM97.9615 27.0395H110.742L104.802 9.45953L97.9615 27.0395ZM155.985 39.7595L144.525 23.3795H140.865L140.985 41.1395H146.565V42.9995H129.885V41.1395H135.465V3.51953H129.885V1.65953H148.065C152.905 1.65953 156.585 2.61953 159.105 4.53953C161.625 6.45953 162.885 9.01953 162.885 12.2195C162.885 15.4195 161.765 18.0195 159.525 20.0195C157.365 21.8195 154.525 22.8395 151.005 23.0795L163.305 39.7595C163.945 40.5595 165.365 41.0595 167.565 41.2595V43.0595C164.645 42.9395 160.025 42.9395 153.705 43.0595L153.765 41.1395H155.445C156.005 41.0195 156.285 40.8195 156.285 40.5395C156.285 40.2195 156.185 39.9595 155.985 39.7595ZM146.085 21.6395C153.365 21.6395 156.925 18.4995 156.765 12.2195C156.605 6.41953 153.465 3.51953 147.345 3.51953H140.985L140.865 21.6395H146.085ZM208.797 22.8395C208.797 28.4395 206.937 33.2595 203.217 37.2995C199.537 41.3395 195.277 43.2795 190.437 43.1195C183.157 42.8795 176.337 42.8395 169.977 42.9995V41.1395H175.617V3.51953H169.977V1.65953C173.537 1.85953 176.697 1.93953 179.457 1.89953C182.217 1.85953 185.937 1.85953 190.617 1.89953C196.257 1.97953 200.697 3.89953 203.937 7.65953C207.177 11.3795 208.797 16.4395 208.797 22.8395ZM199.617 35.3795C201.577 32.2595 202.517 27.9595 202.437 22.4795C202.397 16.9595 201.617 12.7195 200.097 9.75953C198.217 5.95953 195.057 3.87953 190.617 3.51953C187.017 3.31953 183.797 3.39953 180.957 3.75953V41.1395C183.677 41.3795 185.717 41.4995 187.077 41.4995C188.477 41.4995 189.617 41.4595 190.497 41.3795C194.617 40.7795 197.657 38.7795 199.617 35.3795Z" fill="#F1F1F1"/>
</g>
<defs>
<clipPath id="clip0_2199_398">
<rect width="209" height="44" fill="white"/>
</clipPath>
</defs>
</svg>
