<svg width="209" height="44" viewBox="0 0 209 44" fill="none" xmlns="http://www.w3.org/2000/svg">
<path d="M41.08 41.14V43H24.4V41.14H30.04V22.3H11.62V41.14H17.2V43H0.64V41.14H6.28V3.52H0.64V1.66H17.2V3.52H11.62V20.2H30.04V3.52H24.4V1.66H41.08V3.52H35.5V41.14H41.08ZM79.1688 28.66H81.0888L80.3088 43L45.5688 43.06L70.8888 3.52L60.0288 3.64C55.8288 3.68 53.0488 4.48 51.6888 6.04C50.1688 7.88 49.2288 10.48 48.8688 13.84H47.3088L47.4287 1.6L78.5088 1.66L53.5488 41.14L67.7688 40.96C68.8488 40.96 70.1888 40.66 71.7888 40.06C73.3888 39.46 74.5688 38.78 75.3288 38.02C77.6488 35.86 78.9288 32.74 79.1688 28.66ZM126.461 41.14V43H110.861V41.14H115.661L111.581 29.32H97.1209L94.8409 34.72C94.1209 36.56 93.7609 37.92 93.7609 38.8C93.7609 39.64 93.8809 40.24 94.1209 40.6C94.3609 40.96 95.6209 41.14 97.9009 41.14V43H84.8209V41.14C86.9009 41.18 88.4009 40.92 89.3209 40.36C90.2809 39.76 91.3209 37.88 92.4409 34.72L105.461 0.52H107.861L122.021 41.14H126.461ZM97.9609 27.04H110.741L104.801 9.46L97.9609 27.04ZM155.984 39.76L144.524 23.38H140.864L140.984 41.14H146.564V43H129.884V41.14H135.464V3.52H129.884V1.66H148.064C152.904 1.66 156.584 2.62 159.104 4.54C161.624 6.46 162.884 9.02 162.884 12.22C162.884 15.42 161.764 18.02 159.524 20.02C157.364 21.82 154.524 22.84 151.004 23.08L163.304 39.76C163.944 40.56 165.364 41.06 167.564 41.26V43.06C164.644 42.94 160.024 42.94 153.704 43.06L153.764 41.14H155.444C156.004 41.02 156.284 40.82 156.284 40.54C156.284 40.22 156.184 39.96 155.984 39.76ZM146.084 21.64C153.364 21.64 156.924 18.5 156.764 12.22C156.604 6.42 153.464 3.52 147.344 3.52H140.984L140.864 21.64H146.084ZM208.796 22.84C208.796 28.44 206.936 33.26 203.216 37.3C199.536 41.34 195.276 43.28 190.436 43.12C183.156 42.88 176.336 42.84 169.976 43V41.14H175.616V3.52H169.976V1.66C173.536 1.86 176.696 1.94 179.456 1.9C182.216 1.86 185.936 1.86 190.616 1.9C196.256 1.98 200.696 3.9 203.936 7.66C207.176 11.38 208.796 16.44 208.796 22.84ZM199.616 35.38C201.576 32.26 202.516 27.96 202.436 22.48C202.396 16.96 201.616 12.72 200.096 9.76C198.216 5.96 195.056 3.88 190.616 3.52C187.016 3.32 183.796 3.4 180.956 3.76V41.14C183.676 41.38 185.716 41.5 187.076 41.5C188.476 41.5 189.616 41.46 190.496 41.38C194.616 40.78 197.656 38.78 199.616 35.38Z" fill="#58C3E0"/>
</svg>
